<svg width="24" height="24" viewBox="0 0 24 24" fill="none" xmlns="http://www.w3.org/2000/svg">
    <path d="M7.00015 8.00002H21.0001C21.6001 8.00002 22.0001 7.60002 22.0001 7.00002C22.0001 6.40002 21.6001 6.00002 21.0001 6.00002H7.00015C6.40015 6.00002 6.00015 6.40002 6.00015 7.00002C6.00015 7.60002 6.40015 8.00002 7.00015 8.00002ZM21.0001 11H7.00015C6.40015 11 6.00015 11.4 6.00015 12C6.00015 12.6 6.40015 13 7.00015 13H21.0001C21.6001 13 22.0001 12.6 22.0001 12C22.0001 11.4 21.6001 11 21.0001 11ZM21.0001 16H7.00015C6.40015 16 6.00015 16.4 6.00015 17C6.00015 17.6 6.40015 18 7.00015 18H21.0001C21.6001 18 22.0001 17.6 22.0001 17C22.0001 16.4 21.6001 16 21.0001 16ZM3.70015 6.30002C3.60015 6.20002 3.50015 6.10002 3.40015 6.10002C3.00015 5.90002 2.60015 6.00002 2.30015 6.30002C2.20015 6.40002 2.10015 6.50002 2.10015 6.60002C2.00015 6.90002 2.00015 7.10002 2.10015 7.40002C2.20015 7.50002 2.20015 7.60002 2.30015 7.70002C2.40015 7.80002 2.50015 7.90002 2.60015 7.90002C2.70015 8.00002 2.90015 8.00002 3.00015 8.00002C3.30015 8.00002 3.50015 7.90002 3.70015 7.70002C3.80015 7.60002 3.90015 7.50002 3.90015 7.40002C4.00015 7.10002 4.00015 6.90002 3.90015 6.60002C3.90015 6.50002 3.80015 6.40002 3.70015 6.30002ZM3.70015 11.3C3.40015 11 3.00015 10.9 2.60015 11.1C2.50015 11.2 2.40015 11.2 2.30015 11.3C2.20015 11.4 2.10015 11.5 2.10015 11.6C2.00015 11.8 2.00015 12.1 2.10015 12.4C2.20015 12.5 2.20015 12.6 2.30015 12.7C2.40015 12.8 2.50015 12.9 2.60015 12.9C2.70015 13 2.90015 13 3.00015 13C3.10015 13 3.30015 13 3.40015 12.9C3.50015 12.8 3.60015 12.8 3.70015 12.7C3.80015 12.6 3.90015 12.5 3.90015 12.4C4.00015 12.2 4.00015 11.9 3.90015 11.6C3.90015 11.5 3.80015 11.4 3.70015 11.3ZM3.70015 16.3C3.60015 16.2 3.50015 16.1 3.40015 16.1C3.20015 16 2.90015 16 2.60015 16.1C2.50015 16.1 2.40015 16.2 2.30015 16.3C2.20015 16.4 2.10015 16.5 2.10015 16.6C1.90015 17 2.00015 17.4 2.30015 17.7C2.40015 17.8 2.50015 17.9 2.60015 17.9C2.70015 18 2.90015 18 3.00015 18C3.10015 18 3.30015 18 3.40015 17.9C3.50015 17.8 3.60015 17.8 3.70015 17.7C4.00015 17.4 4.10015 17 3.90015 16.6C3.90015 16.5 3.80015 16.4 3.70015 16.3Z" fill="#9C0BF5"/>
    </svg>
    